<?xml version="1.0" encoding="UTF-8"?>
<svg id="Calque_1" xmlns="http://www.w3.org/2000/svg" version="1.1" viewBox="0 0 1694 1080">
  <!-- Generator: Adobe Illustrator 30.2.1, SVG Export Plug-In . SVG Version: 2.1.1 Build 1)  -->
  <defs>
    <style>
      .st0 {
        fill: #868686;
      }

      .st1 {
        fill: #93c01f;
      }
    </style>
  </defs>
  <g>
    <path class="st0" d="M51.88,877.18c9.57-.8,17.14-1.99,22.73-3.59,5.58-1.6,9.77-4.12,12.56-7.58,2.79-3.45,4.59-8.04,5.38-13.76.8-5.71,1.2-13.09,1.2-22.13v-148.32c0-6.91-.6-13.22-1.79-18.94-1.2-5.72-3.33-10.63-6.38-14.75-3.06-4.12-7.31-7.31-12.76-9.57-5.45-2.26-12.43-3.52-20.93-3.79v-8.77c24.45,0,49.04-.4,73.76-1.2,24.72-.8,49.57-1.2,74.56-1.2,10.63,0,21.19,1.53,31.7,4.59,10.5,3.06,20,7.65,28.51,13.76,8.5,6.12,15.41,13.69,20.73,22.73,5.31,9.04,7.97,19.54,7.97,31.5,0,12.76-4.12,23.79-12.36,33.09-8.24,9.31-18.08,15.95-29.51,19.94v.8c7.97,1.6,15.75,4.45,23.32,8.57,7.58,4.12,14.28,9.17,20.13,15.15,5.84,5.98,10.5,12.76,13.95,20.33,3.45,7.58,5.18,15.75,5.18,24.52,0,13.29-2.46,24.46-7.38,33.49-4.92,9.04-11.76,16.29-20.53,21.73-8.77,5.45-19.08,9.37-30.9,11.76-11.83,2.39-24.66,3.59-38.48,3.59-8.51,0-20.4-.67-35.69-1.99-15.29-1.33-35.55-1.99-60.8-1.99-8.24,0-15.49.06-21.73.2-6.25.13-11.83.26-16.75.4-4.92.13-9.44.26-13.55.4-4.13.13-8.17.33-12.16.6v-9.57ZM147.17,744.01c4.52,1.6,9.37,2.93,14.55,3.99,5.18,1.07,10.96,1.6,17.34,1.6,8.24,0,15.61-1.39,22.13-4.19,6.51-2.79,12.02-6.64,16.55-11.56,4.52-4.92,7.97-10.7,10.37-17.35,2.39-6.64,3.59-13.69,3.59-21.13,0-19.14-5.32-33.22-15.95-42.26-10.63-9.03-25.12-13.55-43.46-13.55-4.25,0-8.37.14-12.36.4-3.99.27-8.24.54-12.76.8v103.27ZM147.17,864.82c6.38,2.93,12.89,5.05,19.54,6.38,6.64,1.33,13.42,1.99,20.33,1.99,18.6,0,33.75-4.98,45.45-14.95,11.69-9.97,17.54-24.52,17.54-43.66,0-10.63-2.59-20.8-7.77-30.5-5.18-9.7-11.76-17.88-19.74-24.52-11.7,2.93-22.99,4.39-33.89,4.39-9.31,0-17.21-.46-23.72-1.39-6.52-.93-12.43-2.46-17.74-4.59v106.85Z"/>
    <path class="st0" d="M493.25,618.02c22.59,0,43.26,3.13,62,9.37,18.74,6.25,34.89,15.22,48.44,26.91,13.56,11.7,24.05,26.12,31.5,43.26,7.44,17.14,11.16,36.49,11.16,58.01s-3.73,40.87-11.16,58.01c-7.44,17.14-17.94,31.57-31.5,43.26-13.56,11.7-29.7,20.67-48.44,26.91-18.74,6.24-39.41,9.37-62,9.37s-43.26-3.13-62-9.37c-18.74-6.24-34.89-15.22-48.44-26.91-13.56-11.69-24.06-26.12-31.5-43.26-7.44-17.14-11.16-36.48-11.16-58.01s3.72-40.87,11.16-58.01c7.44-17.14,17.94-31.56,31.5-43.26,13.55-11.69,29.7-20.67,48.44-26.91,18.74-6.24,39.4-9.37,62-9.37ZM493.25,632.37c-16.48,0-30.77,3.32-42.86,9.97-12.1,6.65-22.07,15.69-29.9,27.11-7.84,11.43-13.62,24.52-17.34,39.27-3.73,14.75-5.58,30.37-5.58,46.85s1.86,31.76,5.58,46.65c3.72,14.89,9.5,28.05,17.34,39.47,7.84,11.43,17.81,20.47,29.9,27.11,12.09,6.65,26.38,9.97,42.86,9.97s30.76-3.32,42.86-9.97c12.09-6.64,22.06-15.68,29.9-27.11,7.84-11.42,13.62-24.58,17.34-39.47,3.72-14.89,5.58-30.43,5.58-46.65s-1.86-32.1-5.58-46.85c-3.73-14.75-9.51-27.84-17.34-39.27-7.84-11.42-17.81-20.46-29.9-27.11-12.1-6.64-26.38-9.97-42.86-9.97Z"/>
    <path class="st0" d="M714.53,673.04c0-5.31-.67-10.37-1.99-15.15-1.33-4.79-3.59-8.97-6.78-12.56-3.19-3.59-7.44-6.51-12.76-8.77-5.32-2.26-11.96-3.39-19.94-3.39v-9.57c22.06,1.6,43.86,2.4,65.39,2.4,11.96,0,23.98-.26,36.08-.8,12.09-.53,24.12-1.06,36.09-1.6v9.57c-8.51,0-15.49,1.13-20.93,3.39-5.45,2.26-9.77,5.19-12.96,8.77-3.19,3.59-5.45,7.77-6.78,12.56-1.33,4.78-1.99,9.84-1.99,15.15v80.54c2.12-1.6,5.91-4.72,11.36-9.37,5.45-4.65,11.63-10.1,18.54-16.35,6.91-6.24,14.15-12.89,21.73-19.94,7.58-7.04,14.49-13.96,20.73-20.73,6.24-6.78,11.42-13.02,15.55-18.74,4.12-5.71,6.18-10.3,6.18-13.76,0-3.19-.94-6.04-2.79-8.57-1.86-2.52-4.19-4.72-6.98-6.58-2.79-1.86-5.78-3.32-8.97-4.39-3.19-1.06-6.12-1.72-8.77-1.99v-9.57c10.37,1.33,20.73,2.07,31.1,2.19,10.37.14,20.86.2,31.5.2,11.16,0,21.93-.13,32.29-.4,10.37-.26,21.13-.93,32.29-1.99v9.57c-13.55,1.6-26.12,5.38-37.68,11.36-11.56,5.98-22.53,13.03-32.89,21.13-10.37,8.11-20.4,16.75-30.1,25.92-9.71,9.17-19.6,17.74-29.71,25.72l81.74,117.22c4.25,6.12,8.43,11.63,12.56,16.55,4.12,4.92,8.57,9.17,13.35,12.76,4.79,3.59,10.1,6.52,15.95,8.77,5.84,2.26,12.76,3.79,20.73,4.58v9.57c-11.96-.54-23.99-.94-36.09-1.2-12.1-.27-24.12-.4-36.08-.4s-23.79.13-35.49.4c-11.7.26-23.52.66-35.49,1.2v-7.98c2.12-.53,5.05-1.2,8.77-1.99,3.72-.8,7.38-1.99,10.97-3.59,3.59-1.59,6.71-3.52,9.37-5.78,2.65-2.26,3.99-5.11,3.99-8.57,0-1.86-1.53-5.52-4.59-10.97-3.06-5.45-6.98-11.83-11.76-19.14-4.78-7.31-10.04-15.15-15.75-23.52-5.72-8.37-11.3-16.35-16.75-23.93-5.45-7.57-10.3-14.28-14.55-20.13-4.26-5.84-7.32-10.1-9.17-12.76l-25.12,19.94v68.18c0,6.38.4,12.03,1.2,16.95.8,4.92,2.59,9.04,5.38,12.36,2.79,3.33,6.98,5.92,12.56,7.78,5.58,1.86,13.16,3.06,22.73,3.59v9.57c-12.23-.54-24.32-.94-36.28-1.2-11.96-.27-23.92-.4-35.88-.4-10.9,0-21.67.13-32.3.4-10.63.26-21.4.66-32.29,1.2v-9.57c9.57-.53,17.08-1.72,22.53-3.59,5.45-1.86,9.57-4.45,12.36-7.78,2.79-3.32,4.58-7.44,5.38-12.36.8-4.92,1.2-10.57,1.2-16.95v-163.47Z"/>
    <path class="st0" d="M1021.14,679.42c0-9.03-.54-16.35-1.6-21.93-1.07-5.58-3.13-10.03-6.18-13.35-3.06-3.32-7.38-5.78-12.96-7.38-5.58-1.6-12.89-2.79-21.93-3.59v-9.57c7.71.54,16.61,1.07,26.71,1.6,10.1.54,21.39.8,33.89.8s25.05-.66,37.68-1.99c12.62-1.33,25.58-1.99,38.88-1.99,12.49,0,24.59,1.59,36.28,4.78,11.69,3.19,22.06,7.98,31.1,14.35,9.03,6.38,16.28,14.55,21.73,24.52,5.44,9.97,8.17,21.73,8.17,35.29,0,11.96-2.46,22.27-7.38,30.9-4.92,8.64-11.43,15.89-19.54,21.73-8.11,5.85-17.28,10.17-27.51,12.96-10.23,2.79-20.8,4.19-31.7,4.19-8.77,0-17.61-.66-26.51-1.99-8.91-1.33-17.48-3.59-25.72-6.78v69.77c0,9.04.4,16.42,1.19,22.13.8,5.72,2.66,10.3,5.58,13.76,2.92,3.46,7.31,5.98,13.16,7.57,5.85,1.6,13.96,2.79,24.32,3.59v7.98c-11.43-.54-22.8-.94-34.09-1.2-11.3-.27-22.66-.4-34.09-.4-12.23,0-24.32.13-36.29.4-11.96.26-23.92.66-35.88,1.2v-7.98c9.83-.8,17.6-1.99,23.32-3.59,5.71-1.59,9.97-4.12,12.76-7.57,2.79-3.45,4.59-8.04,5.38-13.76.8-5.71,1.2-13.09,1.2-22.13v-152.31ZM1074.57,749.59c4.25,1.86,9.1,3.46,14.55,4.78,5.45,1.33,10.7,1.99,15.75,1.99,18.07,0,31.7-5.64,40.87-16.94,9.17-11.3,13.76-25.58,13.76-42.86,0-8.51-.94-16.41-2.79-23.72-1.86-7.31-4.79-13.69-8.77-19.14-3.99-5.44-9.24-9.7-15.75-12.76-6.52-3.05-14.42-4.59-23.72-4.59-6.12,0-11.96.54-17.54,1.6-5.58,1.07-11.03,2.66-16.35,4.78v106.86Z"/>
    <path class="st0" d="M1276.31,671.84c0-7.44-1-13.42-2.99-17.94-1.99-4.52-4.79-8.18-8.37-10.97-3.59-2.79-7.91-4.92-12.96-6.38-5.05-1.46-10.76-2.59-17.14-3.39v-9.57c23.92,1.6,47.98,2.4,72.17,2.4s49.04-.8,73.76-2.4v9.57c-6.12.8-12.23,1.93-18.34,3.39-6.12,1.46-11.56,3.59-16.34,6.38-4.79,2.79-8.71,6.45-11.76,10.97-3.06,4.52-4.59,10.5-4.59,17.94v196.97c3.72,1.07,8.9,1.8,15.55,2.19,6.64.4,13.82.6,21.53.6,14.89,0,27.91-1.46,39.08-4.39,11.16-2.92,21.26-7.51,30.3-13.76,9.03-6.24,17.14-14.09,24.32-23.53,7.18-9.43,14.09-20.53,20.73-33.29l9.97,4.39c-6.91,13.82-12.96,27.85-18.14,42.07-5.18,14.22-9.64,28.77-13.36,43.66-18.34-.54-36.75-.94-55.22-1.2-18.48-.27-36.88-.4-55.22-.4s-38.34.13-57.62.4c-19.27.26-38.47.66-57.61,1.2v-9.57c5.31,0,10.5-.26,15.55-.8,5.05-.53,9.57-1.79,13.55-3.79,3.99-1.99,7.18-4.85,9.57-8.57,2.39-3.72,3.59-8.77,3.59-15.15v-177.03Z"/>
    <path class="st0" d="M1501.58,623.6c12.22.54,24.32,1.07,36.28,1.6,11.96.54,24.05.8,36.28.8s23.19-.26,34.49-.8c11.3-.53,22.79-1.06,34.49-1.6v9.57c-9.04.27-16.55,1.27-22.53,2.99-5.98,1.73-10.63,4.25-13.95,7.57-3.33,3.33-5.65,7.71-6.98,13.16-1.33,5.45-1.99,12.16-1.99,20.13v169.06c0,10.36,3.32,17.94,9.97,22.72,6.64,4.79,18.07,7.58,34.29,8.37l-.8,9.57c-11.7-.54-23.27-.94-34.69-1.2-11.43-.27-22.99-.4-34.69-.4s-23.92.13-35.88.4c-11.96.26-23.92.66-35.88,1.2v-9.57c16.21-.8,27.64-3.59,34.29-8.37,6.64-4.78,9.97-12.36,9.97-22.72v-169.06c0-15.68-2.99-26.78-8.97-33.3-5.98-6.51-17.21-10.03-33.69-10.56v-9.57Z"/>
  </g>
  <g>
    <path class="st1" d="M440.92,962.42c-1.23-4.53-3.21-8.75-5.97-12.67-2.75-3.92-5.94-7.34-9.55-10.28-3.61-2.94-7.56-5.26-11.84-6.98-4.29-1.71-8.63-2.57-13.03-2.57-5.51,0-10.19,1.44-14.05,4.31-3.85,2.88-5.78,7.19-5.78,12.95,0,4.41,1.74,8.14,5.23,11.2,3.49,3.06,7.86,5.85,13.13,8.36,5.26,2.51,10.92,5.05,16.98,7.62,6.06,2.57,11.72,5.66,16.98,9.27,5.26,3.61,9.64,7.93,13.13,12.95,3.49,5.02,5.23,11.26,5.23,18.73,0,5.26-1.04,10.04-3.12,14.32-2.08,4.29-5.02,7.92-8.81,10.92-3.79,3-8.38,5.33-13.77,6.98-5.39,1.65-11.38,2.48-17.99,2.48-3.06,0-6.12-.28-9.18-.82-3.06-.55-6.09-1.17-9.09-1.84-3-.67-6.03-1.29-9.09-1.84-3.06-.55-6.12-.83-9.18-.83-.49,0-1.13.09-1.93.28-.8.18-1.65.4-2.57.64-.92.25-1.81.49-2.66.74-.86.24-1.53.49-2.02.74-.98-6.85-2.02-13.77-3.12-20.75-1.1-6.97-2.51-14.01-4.22-21.11h4.04c1.35,4.53,3.55,9,6.61,13.4,3.06,4.41,6.64,8.35,10.74,11.84,4.1,3.49,8.54,6.28,13.31,8.36,4.77,2.08,9.48,3.12,14.14,3.12,4.04,0,7.71-.3,11.02-.92,3.3-.61,6.15-1.62,8.54-3.03,2.39-1.41,4.22-3.3,5.51-5.69,1.28-2.38,1.93-5.41,1.93-9.09,0-5.02-1.78-9.21-5.33-12.58-3.55-3.37-7.99-6.43-13.31-9.18-5.32-2.75-11.08-5.42-17.26-7.99-6.18-2.57-11.93-5.51-17.26-8.81-5.33-3.31-9.76-7.22-13.31-11.75-3.55-4.53-5.33-10.1-5.33-16.71,0-11.5,3.49-19.86,10.47-25.06,6.98-5.2,17.56-7.8,31.76-7.8,3.67,0,7.22.28,10.65.82,3.42.55,6.67,1.19,9.73,1.93,3.06.74,5.93,1.38,8.63,1.93,2.69.55,5.2.82,7.53.82h6.61c-.12,2.08-.25,4.04-.37,5.87-.12,1.84-.18,3.74-.18,5.69,0,3.55.15,7.22.46,11.02.3,3.79.58,7.47.83,11.02h-3.85Z"/>
    <path class="st1" d="M621.4,1042.66c3.43-.37,6.27-1.07,8.54-2.11,2.26-1.04,4.16-2.41,5.69-4.13,1.53-1.71,2.88-3.7,4.04-5.97,1.16-2.26,2.36-4.87,3.58-7.8l35.98-83.9-3.3-8.81c3.92-.74,7.77-1.62,11.57-2.66,3.79-1.04,7.47-2.36,11.02-3.95l39.84,108.14c1.47,3.92,4.04,6.76,7.71,8.54,3.67,1.78,7.4,2.66,11.2,2.66v4.41c-2.33-.13-4.96-.25-7.89-.37-2.94-.12-5.88-.22-8.81-.27-2.94-.06-5.88-.09-8.81-.09h-7.71c-5.14,0-10.25.06-15.33.18-5.08.12-10.19.3-15.33.55v-4.41c6.36-.49,11.08-1.53,14.14-3.12,3.06-1.59,4.59-3.98,4.59-7.16,0-1.1-.22-2.51-.64-4.22-.43-1.71-.98-3.46-1.65-5.23-.67-1.77-1.35-3.55-2.02-5.33-.67-1.77-1.26-3.27-1.74-4.5l-6.24-18.18h-36.54l-9.36,25.89c-.61,1.72-1.26,3.37-1.93,4.96-.67,1.59-1.01,3.61-1.01,6.06,0,1.47.52,2.82,1.56,4.04,1.04,1.22,2.39,2.29,4.04,3.21,1.65.92,3.42,1.68,5.33,2.29,1.9.61,3.64,1.04,5.23,1.28v4.41c-3.92-.25-7.87-.43-11.84-.55-3.98-.12-7.93-.18-11.84-.18-3.67,0-7.34.06-11.02.18-3.67.12-7.34.3-11.02.55v-4.41ZM697.23,987.94l-15.06-42.96h-.37l-15.97,42.96h31.4Z"/>
    <path class="st1" d="M923.97,926.25c4.53.25,8.96.43,13.31.55,4.34.12,9.27.18,14.78.18,6.61,0,13.22-.18,19.83-.55,6.61-.37,13.52-.55,20.75-.55,6.36,0,12.08.92,17.17,2.75,5.08,1.84,9.42,4.38,13.03,7.62,3.61,3.24,6.37,7.01,8.26,11.29,1.9,4.29,2.85,8.94,2.85,13.96,0,4.29-.71,8.05-2.11,11.29-1.41,3.25-3.33,6.06-5.78,8.45-2.45,2.38-5.33,4.37-8.63,5.97-3.31,1.59-6.92,2.81-10.83,3.67,2.57,4.16,5.75,9.09,9.55,14.78,3.79,5.69,7.99,11.2,12.58,16.52,4.59,5.33,9.51,10.01,14.78,14.05,5.26,4.04,10.65,6.55,16.16,7.53v3.31c-3.55-.25-7.01-.43-10.37-.55-3.37-.12-6.82-.18-10.37-.18-3.06,0-6.12.06-9.18.18-3.06.12-6.12.3-9.18.55-7.71-8.2-14.84-16.77-21.39-25.7-6.55-8.93-12.51-18.3-17.9-28.09-2.08-.24-4.44-.61-7.07-1.1-2.63-.49-4.62-1.22-5.97-2.2v31.76c0,4.16.15,7.53.46,10.1.3,2.57,1.1,4.59,2.39,6.06,1.28,1.47,3.15,2.54,5.6,3.21,2.45.67,5.81,1.19,10.1,1.56v4.41c-4.29-.25-8.96-.43-14.04-.55-5.08-.12-10.26-.18-15.52-.18-5.63,0-11.2.06-16.71.18-5.51.12-11.02.3-16.52.55v-4.41c4.53-.37,8.11-.89,10.74-1.56,2.63-.67,4.59-1.75,5.88-3.21,1.28-1.47,2.11-3.49,2.48-6.06.37-2.57.55-5.93.55-10.1v-69.77c0-3.67-.18-6.79-.55-9.36-.37-2.57-1.19-4.71-2.48-6.43-1.29-1.71-3.25-3.03-5.88-3.95-2.63-.92-6.21-1.56-10.74-1.93v-4.04ZM968.22,982.8c3.92,1.84,8.01,2.75,12.3,2.75,8.08,0,14.59-2.26,19.55-6.8,4.96-4.53,7.44-11.13,7.44-19.83,0-3.67-.58-7.13-1.74-10.37-1.17-3.24-2.85-6.06-5.05-8.44-2.21-2.39-4.84-4.25-7.9-5.6-3.06-1.34-6.49-2.02-10.28-2.02-2.45,0-4.84.12-7.16.37-2.33.25-4.71.8-7.16,1.65v48.29Z"/>
    <path class="st1" d="M1241.41,948.1c0-3.42-.46-6.18-1.38-8.26-.92-2.08-2.2-3.77-3.85-5.05-1.65-1.28-3.64-2.26-5.97-2.94-2.33-.67-4.96-1.19-7.89-1.56v-4.41c11.02.74,22.09,1.1,33.23,1.1s22.58-.37,33.97-1.1v4.41c-2.82.37-5.63.89-8.44,1.56-2.82.67-5.33,1.65-7.53,2.94-2.2,1.28-4.01,2.97-5.41,5.05-1.41,2.08-2.11,4.84-2.11,8.26v90.7c1.71.49,4.1.82,7.16,1.01,3.06.19,6.36.28,9.92.28,6.85,0,12.85-.67,17.99-2.02,5.14-1.34,9.79-3.46,13.96-6.33,4.16-2.88,7.89-6.49,11.2-10.83,3.3-4.34,6.49-9.46,9.55-15.33l4.59,2.02c-3.18,6.37-5.97,12.82-8.35,19.37-2.39,6.55-4.44,13.25-6.15,20.11-8.44-.25-16.92-.43-25.43-.55-8.51-.12-16.98-.18-25.43-.18s-17.66.06-26.53.18c-8.88.12-17.72.3-26.53.55v-4.41c2.45,0,4.83-.12,7.16-.37,2.32-.24,4.41-.83,6.24-1.75s3.3-2.23,4.41-3.95c1.1-1.71,1.65-4.04,1.65-6.97v-81.52Z"/>
  </g>
  <g>
    <path class="st1" d="M1053.04,202.46c-7.59-7.59-14.11-15.7-19.38-24.11l-24.19,15.16c6.41,10.22,14.27,20.02,23.38,29.13,20.4,20.4,44.5,34.58,66.12,38.9l7.49,1.5,48.67-48.67-1.5-7.49c-4.32-21.62-18.5-45.72-38.9-66.12-20.4-20.4-44.5-34.58-66.12-38.9l-7.49-1.5-77.11,77.11c-13.81-11.6-29.19-21.02-45.89-28.08-4.88-2.06-9.83-3.91-14.84-5.53,4.18-10.78,6.4-22.75,6.4-35.04,0-20.29-5.98-39.52-16.84-54.16-5.59-7.53-12.19-13.49-19.62-17.73-8.09-4.61-16.74-6.95-25.72-6.95s-17.63,2.34-25.72,6.95c-7.43,4.24-14.04,10.2-19.62,17.73-10.86,14.64-16.84,33.87-16.84,54.16,0,12.29,2.22,24.25,6.4,35.04-5.01,1.62-9.95,3.46-14.84,5.53-16.7,7.06-32.08,16.48-45.89,28.08l-77.11-77.11-7.49,1.5c-21.62,4.32-45.72,18.5-66.12,38.9-20.4,20.4-34.58,44.5-38.9,66.12l-1.5,7.49,48.67,48.67,7.49-1.5c21.62-4.32,45.72-18.5,66.12-38.9,9.11-9.11,16.98-18.91,23.38-29.13l-24.19-15.16c-5.27,8.4-11.79,16.51-19.38,24.11-13.93,13.93-30.05,24.45-44.44,29.2l-26.27-26.27c4.75-14.39,15.27-30.51,29.2-44.44,13.93-13.93,30.05-24.45,44.44-29.2l65.73,65.73c-12.61,14.47-22.77,30.72-30.28,48.45-9.46,22.38-14.26,46.14-14.26,70.62s4.8,48.25,14.26,70.62c2.17,5.13,4.57,10.14,7.18,15.02l-92.56,65.76.23,7.63c.65,22.04,10.61,48.17,27.32,71.68,16.71,23.52,38.1,41.52,58.7,49.39l7.14,2.73,56.11-39.86-.23-7.63c-.65-22.04-10.61-48.16-27.32-71.68-7.46-10.5-15.81-19.89-24.82-27.92l-18.98,21.32c7.41,6.6,14.32,14.38,20.53,23.13,11.41,16.06,19.09,33.71,21.37,48.69l-30.29,21.52c-13.39-7.08-27.53-20.15-38.94-36.21-11.41-16.06-19.09-33.71-21.37-48.69l78.56-55.81c4.96,6.52,10.38,12.73,16.25,18.6,16.66,16.66,36.06,29.74,57.66,38.87,6.94,2.93,14.01,5.42,21.2,7.45l49.42,95.63,49.42-95.63c7.19-2.03,14.26-4.52,21.2-7.45,21.6-9.14,41.01-22.22,57.66-38.87,5.87-5.87,11.29-12.07,16.25-18.6l78.56,55.81c-2.28,14.98-9.96,32.63-21.37,48.69-11.41,16.06-25.55,29.12-38.94,36.21l-30.29-21.52c2.28-14.98,9.96-32.63,21.37-48.69,6.22-8.75,13.13-16.53,20.53-23.13l-18.98-21.32c-9.01,8.02-17.36,17.41-24.82,27.92-16.71,23.52-26.67,49.64-27.32,71.68l-.23,7.63,56.11,39.86,7.14-2.73c20.59-7.87,41.99-25.87,58.7-49.39,16.71-23.52,26.67-49.64,27.32-71.68l.23-7.63-92.56-65.76c2.61-4.88,5.01-9.89,7.18-15.02,9.46-22.38,14.26-46.14,14.26-70.62s-4.8-48.25-14.26-70.62c-7.5-17.74-17.66-33.99-30.28-48.45l65.73-65.73c14.39,4.75,30.51,15.27,44.44,29.2,13.93,13.93,24.45,30.05,29.2,44.44l-26.27,26.27c-14.39-4.75-30.51-15.27-44.44-29.2ZM945.91,302.29l-36.81-63.77,27.82-46c6.58,4.76,12.83,10.09,18.68,15.94,25.48,25.48,40.86,58.38,44.12,93.82h-53.81ZM837.83,469.13c-19.37-1.2-38.05-6.01-55.26-14.09l27.9-46.13h73.92l27.93,46.18c-17.18,8.05-35.82,12.84-55.15,14.04h-19.34ZM884.34,380.37h-73.68l-36.84-63.81,36.84-63.81h73.68l36.84,63.81-36.84,63.81ZM749.09,302.29h-53.81c3.26-35.45,18.64-68.34,44.12-93.82,5.83-5.83,12.04-11.12,18.58-15.87l27.85,46.05-36.74,63.64ZM884.39,224.2h-73.92l-27.9-46.13c20.06-9.42,42.11-14.39,64.93-14.39s44.79,4.95,64.82,14.34l-27.93,46.18ZM813.86,108.84c0-27.26,15.4-50.3,33.64-50.3s33.64,23.03,33.64,50.3c0,10.25-2.11,20.05-6.02,28.38-9.08-1.38-18.29-2.08-27.62-2.08s-18.54.7-27.62,2.08c-3.92-8.33-6.02-18.13-6.02-28.38ZM695.28,330.83h53.81l36.74,63.64-27.85,46.05c-6.54-4.75-12.76-10.04-18.58-15.87-25.48-25.48-40.86-58.38-44.12-93.82ZM861.43,497.68l-13.93,26.95-13.93-26.95h3.43c3.48.2,6.98.3,10.5.3s7.01-.1,10.5-.3h3.43ZM955.6,424.66c-5.86,5.86-12.1,11.18-18.68,15.94l-27.82-46,36.81-63.77h53.81c-3.26,35.45-18.64,68.34-44.12,93.82Z"/>
    <circle class="st1" cx="833.5" cy="98.67" r="8.02"/>
    <circle class="st1" cx="861.5" cy="98.67" r="8.02"/>
  </g>
</svg>