<?xml version="1.0" encoding="UTF-8"?>
<svg id="Calque_1" xmlns="http://www.w3.org/2000/svg" version="1.1" viewBox="0 0 1920 484">
  <!-- Generator: Adobe Illustrator 30.2.1, SVG Export Plug-In . SVG Version: 2.1.1 Build 1)  -->
  <defs>
    <style>
      .st0 {
        fill: #fff;
      }
    </style>
  </defs>
  <path class="st0" d="M310.11,368.63l-30.05,67.43h15.99l5.97-14.45h31.3l5.97,14.45h16.37l-30.15-67.43h-15.41ZM307.03,409.76l10.69-25.82,10.69,25.82h-21.38Z"/>
  <path class="st0" d="M405.04,371.62c-4.4-1.99-9.58-2.99-15.56-2.99h-29.19v67.43h15.6v-18.59h13.58c5.97,0,11.16-.98,15.56-2.94,4.39-1.95,7.78-4.78,10.16-8.48,2.38-3.69,3.56-8.01,3.56-12.95s-1.19-9.34-3.56-13c-2.38-3.66-5.76-6.49-10.16-8.48ZM399.31,401.72c-2.44,2.02-6,3.03-10.69,3.03h-12.71v-23.41h12.71c4.69,0,8.25,1.01,10.69,3.04s3.66,4.93,3.66,8.72-1.22,6.6-3.66,8.62Z"/>
  <path class="st0" d="M485.9,393.09c0-5.01-1.19-9.34-3.56-13-2.38-3.66-5.76-6.49-10.16-8.48-4.4-1.99-9.58-2.99-15.56-2.99h-29.19v67.43h15.6v-18.59h13.58c5.97,0,11.16-.98,15.56-2.94,4.39-1.95,7.78-4.78,10.16-8.48,2.38-3.69,3.56-8.01,3.56-12.95ZM466.44,401.72c-2.44,2.02-6,3.03-10.69,3.03h-12.71v-23.41h12.71c4.69,0,8.25,1.01,10.69,3.04s3.66,4.93,3.66,8.72-1.22,6.6-3.66,8.62Z"/>
  <path class="st0" d="M512.39,368.63l-30.05,67.43h15.99l5.97-14.45h31.3l5.97,14.45h16.37l-30.15-67.43h-15.41ZM509.3,409.76l10.69-25.82,10.69,25.82h-21.38Z"/>
  <path class="st0" d="M617.42,406.05c2.41-3.63,3.61-7.94,3.61-12.95s-1.19-9.34-3.56-13c-2.38-3.66-5.76-6.49-10.16-8.48-4.4-1.99-9.58-2.99-15.56-2.99h-29.19v67.43h15.6v-18.78h14.35l13.01,18.78h16.76l-15.12-21.67c4.43-1.93,7.85-4.7,10.26-8.34ZM601.58,401.76c-2.44,2.05-6,3.08-10.69,3.08h-12.71v-23.51h12.71c4.69,0,8.25,1.01,10.69,3.04s3.66,4.93,3.66,8.72-1.22,6.62-3.66,8.67Z"/>
  <polygon class="st0" points="622.38 381.34 643.95 381.34 643.95 436.06 659.56 436.06 659.56 381.34 681.13 381.34 681.13 368.63 622.38 368.63 622.38 381.34"/>
  <polygon class="st0" points="702.61 407.93 733.92 407.93 733.92 395.79 702.61 395.79 702.61 381.15 738.06 381.15 738.06 368.63 687.11 368.63 687.11 436.06 739.31 436.06 739.31 423.53 702.61 423.53 702.61 407.93"/>
  <polygon class="st0" points="812.32 368.63 787.47 410.53 762.24 368.63 749.33 368.63 749.33 436.06 763.97 436.06 763.97 396.46 783.72 428.93 790.75 428.93 810.59 395.6 810.69 436.06 825.33 436.06 825.14 368.63 812.32 368.63"/>
  <polygon class="st0" points="854.41 407.93 885.72 407.93 885.72 395.79 854.41 395.79 854.41 381.15 889.86 381.15 889.86 368.63 838.91 368.63 838.91 436.06 891.12 436.06 891.12 423.53 854.41 423.53 854.41 407.93"/>
  <polygon class="st0" points="947.56 409.57 914.04 368.63 901.13 368.63 901.13 436.06 916.54 436.06 916.54 395.12 950.16 436.06 962.97 436.06 962.97 368.63 947.56 368.63 947.56 409.57"/>
  <polygon class="st0" points="968.94 381.34 990.51 381.34 990.51 436.06 1006.12 436.06 1006.12 381.34 1027.7 381.34 1027.7 368.63 968.94 368.63 968.94 381.34"/>
  <path class="st0" d="M1072,399.84c-3.28-1.22-7.48-2.44-12.62-3.66-4.94-1.09-8.62-2.2-11.03-3.32s-3.61-2.84-3.61-5.15,1.04-4.18,3.13-5.59c2.09-1.41,5.31-2.12,9.68-2.12,6.23,0,12.46,1.77,18.69,5.3l4.82-11.85c-3.08-1.93-6.68-3.4-10.79-4.43-4.11-1.02-8.31-1.54-12.61-1.54-6.17,0-11.39.93-15.66,2.8-4.27,1.86-7.46,4.38-9.58,7.56-2.12,3.18-3.18,6.73-3.18,10.64,0,4.5,1.17,8.09,3.52,10.79,2.34,2.7,5.15,4.66,8.43,5.87,3.27,1.22,7.48,2.44,12.61,3.66,3.34.77,5.99,1.48,7.95,2.12s3.56,1.49,4.82,2.55c1.25,1.06,1.88,2.39,1.88,4,0,2.18-1.06,3.93-3.18,5.25-2.12,1.32-5.39,1.98-9.82,1.98-3.98,0-7.96-.64-11.95-1.93-3.98-1.29-7.42-2.98-10.31-5.11l-5.3,11.75c3.02,2.31,7.01,4.19,11.99,5.63,4.97,1.45,10.13,2.17,15.46,2.17,6.17,0,11.4-.93,15.7-2.8,4.3-1.86,7.53-4.38,9.68-7.56,2.15-3.18,3.23-6.69,3.23-10.55,0-4.49-1.18-8.06-3.52-10.69-2.35-2.63-5.15-4.56-8.43-5.78Z"/>
  <path class="st0" d="M1167.12,372.82c-5.62-2.79-12.09-4.19-19.41-4.19h-30.63v67.43h30.63c7.32,0,13.79-1.4,19.41-4.19,5.62-2.8,9.99-6.73,13.1-11.8s4.67-10.98,4.67-17.72-1.56-12.65-4.67-17.73c-3.11-5.07-7.48-9-13.1-11.8ZM1163.07,417.61c-4.01,3.76-9.39,5.63-16.13,5.63h-14.26v-41.8h14.26c6.74,0,12.12,1.88,16.13,5.63s6.02,8.85,6.02,15.27-2.01,11.51-6.02,15.26Z"/>
  <polygon class="st0" points="1209.74 407.93 1241.05 407.93 1241.05 395.79 1209.74 395.79 1209.74 381.15 1245.19 381.15 1245.19 368.63 1194.23 368.63 1194.23 436.06 1246.44 436.06 1246.44 423.53 1209.74 423.53 1209.74 407.93"/>
  <polygon class="st0" points="1296.91 368.63 1281.31 368.63 1281.31 436.06 1330.71 436.06 1330.71 423.34 1296.91 423.34 1296.91 368.63"/>
  <path class="st0" d="M1381.28,405.81c0,6.23-1.29,10.81-3.85,13.73-2.57,2.92-6.3,4.38-11.17,4.38-10.02,0-15.03-6.04-15.03-18.11v-37.18h-15.6v37.76c0,9.89,2.68,17.5,8.04,22.83,5.36,5.33,12.86,8,22.49,8s17.13-2.67,22.49-8,8.04-12.94,8.04-22.83v-37.76h-15.41v37.18Z"/>
  <polygon class="st0" points="1467.59 368.63 1450.73 368.63 1435.51 390.49 1420 368.63 1402.28 368.63 1425.97 401.76 1401.03 436.06 1418.95 436.06 1434.93 412.65 1451.21 436.06 1469.22 436.06 1444.08 401.18 1467.59 368.63"/>
  <polygon class="st0" points="1488.49 407.93 1519.79 407.93 1519.79 395.79 1488.49 395.79 1488.49 381.15 1523.93 381.15 1523.93 368.63 1472.98 368.63 1472.98 436.06 1525.19 436.06 1525.19 423.53 1488.49 423.53 1488.49 407.93"/>
  <path class="st0" d="M319.81,328.66c5.39-7.79,8.01-14,8.01-18.99,0-3.77-1.82-6.75-5.14-8.54-1.48-.89-3.13-1.34-4.9-1.34-2.99,0-5.52,1.06-7.53,3.14-1.99,2.05-2.99,4.54-2.99,7.39,0,2.41.73,4.58,2.16,6.44.84,1.09,1.83,1.98,2.97,2.68-1.61,4.07-4.32,7.78-8.06,11.07-4.35,3.81-9.69,5.66-16.34,5.66-18.74,0-34.52-13.84-46.91-41.13-11.18-24.63-24.39-41.18-39.36-49.36,12.2-2.65,23.32-6.85,33.13-12.51,18.05-10.33,32.73-24.63,43.65-42.51,10.95-17.91,16.5-38.3,16.5-60.6,0-17.76-4.03-32.79-11.99-44.67-7.95-11.86-18.85-20.86-32.4-26.76-13.42-5.83-28.76-8.79-45.61-8.79-21.08,0-40.42,6.09-57.47,18.12-16.28,11.62-29.32,26.31-38.77,43.69-9.68,17.93-14.58,36.31-14.58,54.62,0,12.32,2.54,23.87,7.55,34.32,5.05,10.54,12.49,19.19,22.13,25.73,7.2,4.93,15.48,8.02,24.67,9.22-24.4,55.29-50.03,83.32-76.19,83.32-9.65,0-18.06-3.04-25.01-9.04-6.19-5.35-10.22-12.46-12.01-21.16,1.5-.33,3.15-1.22,5.1-2.75,2.61-2.05,3.99-4.74,3.99-7.79,0-2.85-1.01-5.33-3-7.39-2.01-2.08-4.49-3.14-7.37-3.14-4.79,0-7.32,2.42-8.6,4.46-1.6,2.56-2.41,5.41-2.41,8.47,0,10,3.01,19.56,8.94,28.41,9.14,13.65,23.69,20.57,43.25,20.57,25.25-.11,46.78-10.01,63.99-29.42,12.03-13.51,23.06-30.84,32.8-51.53.9-.08,1.8-.13,2.69-.13,15.37,0,29.58,16.41,42.21,48.77,13.52,34.62,35.98,52.18,66.75,52.18,14.31,0,26.48-6.96,36.17-20.7ZM183.13,222.28c8.21-21.57,17.43-50.24,27.47-85.38,2.6,3.6,4.76,7.59,6.44,11.9,2.12,5.54,3.19,11.26,3.19,16.99,0,16.97-4.94,31.02-14.68,41.78-6.21,6.81-13.74,11.74-22.42,14.71ZM112.44,129.29c4.99-12.48,12.03-24,20.93-34.25,8.87-10.22,19.45-18.61,31.43-24.94,11.9-6.28,25.09-9.47,39.21-9.47s25.61,2.44,35.35,7.26c21.1,10.39,31.35,28.9,31.35,56.56,0,20.48-5.65,40.96-16.8,60.86-18.18,32.49-44.05,50.01-76.93,52.12.48-1.09.94-2.19,1.4-3.3,13.97-3.02,25.72-9.54,34.95-19.42,5.78-6.23,10.12-13.39,12.9-21.28,3.08-8.69,4.64-17.67,4.64-26.69,0-7.46-1.36-14.74-4.01-21.59-2.92-7.93-7.18-14.88-12.66-20.67,3.61-13.04,7.38-26.92,11.29-41.65l.89-3.36h-29.44l-7.26,28.74c-11.1-4.72-22.92-7.11-35.2-7.11-11.25,0-12.93,6.59-12.93,10.53,0,2.88,1.06,5.36,3.14,7.37,4.1,3.97,10.65,3.98,14.78,0,1.95-1.89,3-4.19,3.12-6.85,8.62.84,16.83,2.99,24.47,6.41-11.33,43.12-22.81,78.94-34.13,106.52-8.16-.98-15.46-3.42-21.76-7.28-8.49-5.05-15.04-12.07-19.49-20.86-4.49-8.87-6.76-19.08-6.76-30.36,0-12.31,2.52-24.86,7.5-37.3Z"/>
  <polygon class="st0" points="398.64 97.74 379.52 97.74 330.85 143.15 346.32 143.15 398.64 97.74"/>
  <path class="st0" d="M525.43,143.15c4.48,0,8.67-1.61,12.43-4.77,4.8-3.93,7.23-8.94,7.23-14.89,0-3.38-1.06-6.42-3.2-9.1-2.87-3.39-6.69-5.11-11.34-5.11s-8.66,1.61-12.47,4.8c-4.77,4.04-7.19,9.04-7.19,14.86,0,3.52,1.24,6.77,3.67,9.66,2.55,3.02,6.2,4.56,10.86,4.56Z"/>
  <path class="st0" d="M989.28,288.96c24.22,0,49.09-22.98,76.03-70.25l7.03-12.3-8.98-5.77-1.41,2.42c-6.89,11.88-11.99,20.35-15.16,25.21-24.51,38.18-39.14,46.2-47.1,46.2-4.2,0-7.18-2.14-9.36-6.73-2.43-5.11-3.67-12.08-3.67-20.72,0-1.78.07-3.43.21-4.93,19.92-2.5,36.36-17.16,48.88-43.59,4.53-9.51,6.83-18.63,6.83-27.11,0-6.34-1.75-11.42-5.21-15.13-3.5-3.75-8.53-5.66-14.93-5.66-6.9,0-14.2,3.09-21.71,9.17-7.21,5.85-14.1,13.51-20.47,22.75-5.39,7.84-10.02,16.27-13.89,25.06-4.21,7.36-8.42,14.33-12.51,20.68-24.51,38.18-39.14,46.2-47.1,46.2-4.23,0-7.42-2.48-9.73-7.55-1.97-4.43-2.97-9.67-2.97-15.57,0-20.7,8.09-42.83,24.03-65.76,11.57-16.44,17.55-18.89,20.08-18.89.44,0,.75.06,1.12.81.57,1.18.86,2.87.86,5.01,0,8.93-2.68,19.72-7.97,32.11-3.74-1.61-8.41-.82-11.51,2.29-2.06,2.06-3.11,4.61-3.11,7.58s1.05,5.36,3.11,7.42c2.06,2.06,4.56,3.11,7.42,3.11,7.74,0,14.17-11.29,20.86-36.62,1.33-5.22,2.01-10.4,2.01-15.4,0-14.65-7.41-22.38-21.42-22.38-6.79,0-14.04,3.09-21.55,9.17-7.21,5.85-14.18,13.58-20.7,22.99-5.18,7.48-9.73,15.77-13.61,24.67-18.63,31.49-33.82,52.67-45.07,62.73-4.06,3.55-5.81,3.83-6.16,3.89,0,0-.62-.65-.62-3.64,0-5.51,2.69-15.04,8-28.38,2.24-5.96,4.63-12.08,7.18-18.36,9.3-22.76,13.82-37.81,13.82-46.04,0-6.78-2.27-13.08-6.75-18.73-4.63-5.83-11.18-8.78-19.48-8.78-7.78,0-15.53,4.01-23.44,12.18.79-1.93,1.58-3.85,2.36-5.77l1.52-3.69h-30.78l-22.44,54.83c-5.54,9.47-9.72,16.38-12.46,20.58-24.51,38.18-39.14,46.2-47.1,46.2-4.2,0-7.18-2.14-9.36-6.73-2.43-5.11-3.67-12.08-3.67-20.72,0-1.78.07-3.43.21-4.93,19.92-2.5,36.36-17.16,48.88-43.59,4.53-9.51,6.83-18.63,6.83-27.11,0-6.34-1.75-11.42-5.21-15.13-3.5-3.75-8.53-5.66-14.93-5.66-6.9,0-14.2,3.09-21.71,9.17-7.21,5.85-14.1,13.51-20.47,22.75-5.39,7.83-10.02,16.26-13.89,25.05-14.95,25.86-29.09,46.01-41.98,59.84-6.15,6.27-9.37,7.21-11.12,7.22-.04-.06-.15-.37-.15-1.02,0-3.72,2.22-14.03,12.82-42.03,12.1-33.11,32.51-84.45,60.68-152.59l1.53-3.7h-29.83l-.68,1.66c-11.93,29.24-24.22,58.77-36.55,87.88-4.55-9.03-11.82-13.6-21.7-13.6-8.71,0-17.28,3.35-25.48,9.97-7.95,6.42-15.36,15.25-22,26.26-3.74,6.19-7.03,12.51-9.96,18.88l-.32.55c-15.1,26.19-29.42,46.5-42.57,60.39-5.58,5.93-8.34,7.09-9.4,7.29-.04-.2-.08-.52-.08-.97,0-5.42,2.75-15.45,8.15-29.81,6.89-18.02,16.13-39.19,27.48-62.94,6.08-12.79,9.97-20.9,11.67-24.3l1.94-3.87h-31.29l-.74,1.47c-10.3,20.43-18.63,38.4-25.08,54.06-6.29,10.69-11.78,19.58-16.24,26.22-4.89,7.1-9.8,13.4-14.67,18.85.64-3.52.96-7.28.96-11.24,0-9.57-2.48-21.02-7.38-34.03-4.67-12.4-7.04-21.55-7.04-27.18,0-12.09,8.2-19.51,25.06-22.69l2.64-.5-1.89-9.77h-2.21c-19.01,0-32.91,6.21-41.29,18.45-3.05,4.35-6.18,9.69-9.29,15.79-2.45,4.46-5.15,9.19-8.09,14.13-.89,1.43-1.73,2.95-2.61,4.41l-.04-.03-1.41,2.42c-.72,1.24-1.41,2.42-2.09,3.58-.06.1-.12.2-.18.3l-.06.11c-5.72,9.79-10.03,16.93-12.83,21.22-24.51,38.18-39.14,46.2-47.1,46.2-4.2,0-7.18-2.14-9.36-6.73-2.43-5.11-3.67-12.08-3.67-20.72,0-1.78.07-3.43.21-4.93,19.92-2.5,36.36-17.16,48.88-43.59,4.53-9.51,6.83-18.63,6.83-27.11,0-6.34-1.75-11.42-5.21-15.13-3.5-3.75-8.53-5.66-14.93-5.66-6.9,0-14.2,3.09-21.71,9.17-7.21,5.85-14.1,13.51-20.47,22.75-6.33,9.2-11.68,19.19-15.89,29.67-5.34,13.09-8.05,25.66-8.05,37.38,0,15.56,4.62,26.9,13.69,33.67,4.84,3.78,11.32,5.69,19.27,5.69,15.99,0,32.27-10.09,49.24-30.5-.62,2.49-.96,5.08-.96,7.8,0,7.96,2.57,14.1,7.63,18.25,4.9,4.02,11.32,6.05,19.08,6.05,10.09,0,19.76-2.25,28.73-6.68,13.08-6.4,26.01-18.07,38.56-34.67-1.78,7.59-2.67,14.12-2.67,19.61,0,17.97,9.99,21.74,18.38,21.74,10.98,0,26.17-14.52,46.06-44.06-.49,3.6-.83,7.09-.83,10.3,0,22.4,7.05,33.76,20.94,33.76,9.24,0,19.66-8.5,31.84-25.99,2.35-3.4,5.59-8.43,9.68-15.04-1.69,7.34-2.54,13.8-2.54,19.29,0,17.97,10.86,21.74,19.98,21.74,9.77,0,22.38-11.12,38.53-33.94,3.14-4.29,6.3-8.87,9.48-13.58-.18,2.2-.37,4.4-.37,6.55,0,15.56,4.62,26.9,13.69,33.67,4.84,3.78,11.32,5.69,19.27,5.69,15.97,0,32.22-10.05,49.15-30.39l-12.44,30.39h30.77l.69-1.65c6.27-15.09,12.78-30.28,19.39-45.2,5.17-12.66,11.26-26.08,18.1-39.88,6.74-13.58,14.27-24.78,22.28-33.21,7.04-6.68,11.08-8.08,13.22-8.08,1.02,0,3.41,0,3.41,6.78,0,8.11-5.63,24.28-16.71,48.02-4.4,9.01-8.31,17.98-11.63,26.66-3.42,8.91-5.14,17.64-5.14,25.95,0,13.8,7.41,21.1,21.42,21.1,12.46,0,28.8-15.17,49.61-46.1-.2,2.42-.37,4.83-.37,7.22,0,6.58,1.02,12.78,3.04,18.44,2.09,5.87,5.6,10.7,10.44,14.37,4.89,3.71,11.39,5.59,19.32,5.59,19.48,0,39.34-14.89,60.31-45.26-.15,1.97-.33,3.96-.33,5.89,0,15.56,4.62,26.9,13.69,33.67,4.84,3.78,11.32,5.69,19.27,5.69ZM989.02,230.63c3.09-11.87,7.88-23.23,14.25-33.81,5.95-9.81,12.34-18.16,19.01-24.84,5.36-5.49,7.62-5.92,8.18-5.92,1.1,0,1.33,2.12,1.33,3.89s-.05,3.06-.14,4c-1.75,14.05-8.18,27.93-19.1,41.23-6.76,8.08-14.66,13.26-23.53,15.44ZM605.9,177.49c0,3.23-1.43,7.97-4.25,14.12l-4.65,10.27c-8.85,19.8-20.99,40.23-36.11,60.76-6.48,9.18-8.86,9.73-9.05,9.76-.96-.03-1.64-2.68-1.64-6.46,0-6.97,2.01-16.88,5.97-29.47,3.47-10.95,7.9-22.01,13.16-32.89,5.22-10.81,10.72-19.83,16.34-26.8,5.21-6.46,10.01-9.74,14.26-9.74,1.56,0,3.51.52,4.85,4.65.74,2.05,1.12,4.01,1.12,5.82ZM681.54,230.63c3.09-11.87,7.88-23.23,14.25-33.81,5.95-9.81,12.34-18.16,19.01-24.84,5.36-5.49,7.62-5.92,8.18-5.92,1.1,0,1.33,2.12,1.33,3.89s-.05,3.06-.14,4c-1.75,14.05-8.18,27.93-19.1,41.23-6.76,8.08-14.66,13.26-23.53,15.44ZM317.83,230.63c3.09-11.87,7.88-23.23,14.25-33.81,5.95-9.81,12.34-18.16,19.01-24.84,5.36-5.49,7.62-5.92,8.18-5.92,1.1,0,1.33,2.12,1.33,3.89s-.05,3.06-.14,4c-1.75,14.05-8.18,27.93-19.1,41.23-6.76,8.08-14.66,13.26-23.53,15.44ZM394.12,218.71l5.35-9.36,5.47-9.33c1.3,4.91,3.48,11.17,6.57,18.91,4.6,11.54,6.94,21.16,6.94,28.57,0,10.02-2.55,17.75-7.61,23.01-5.61,6.01-12.36,8.93-20.64,8.93-3.76,0-6.87-1.08-9.49-3.29-2.49-2.1-3.7-5.34-3.7-9.89,0-3.75,1.27-7.69,3.76-11.73,1.96-3.16,4.49-5.33,7.69-6.57,1.69,3.84,4.9,5.92,9.26,5.92,2.04,0,4.01-.65,5.83-1.91,3.07-2.1,4.69-5.19,4.69-8.94,0-2.14-.86-4.24-2.57-6.23-1.81-2.11-4.43-3.18-7.8-3.18-5.56,0-11,1.81-16.21,5.37,4.1-6.19,8.25-12.9,12.45-20.27Z"/>
  <path class="st0" d="M1405.66,201.84c0-12.59-4.49-23.92-13.35-33.68-7.39-8.14-17.57-13.37-30.33-15.6,3.93-2.59,7.61-5.53,10.98-8.8,5.32-5.15,9.62-10.97,12.79-17.31,3.22-6.43,4.85-13.36,4.85-20.58,0-14.1-4.84-25.45-14.36-33.73-8.82-7.82-19.52-13.51-31.84-16.92-13.09-3.57-26.43-5.38-39.64-5.38-24.01,0-47.5,4.38-69.88,13.02-14.81-14.2-20.27-16.06-23.38-16.06-2.86,0-5.36,1.05-7.42,3.11-2.06,2.06-3.11,4.61-3.11,7.58s1.05,5.36,3.11,7.42c2.06,2.06,4.56,3.11,7.42,3.11,2.52,0,5.76-.79,8.19-4.1,1.53,1.21,3.03,2.44,4.49,3.69-15.84,8.09-29.77,19.02-41.47,32.52-12.53,14.47-22.38,30.46-29.3,47.54-7.46,18.5-11.25,36.03-11.25,52.11,0,21.12,5.15,37.26,15.31,47.99,10.2,10.76,23.25,16.22,38.79,16.22,12.41,0,24.73-3.66,36.64-10.88,11.87-7.2,21.99-17.95,30.1-31.96.16-.28.31-.56.47-.83l-10.55,25.22c-4.87,11.56-10.46,23.41-16.63,35.24-9.01.32-17.22,3.33-24.44,8.95-7.86,6.11-11.85,12.83-11.85,19.98,0,4.23,1.91,11.33,14.69,11.33,16.84,0,31.32-8.53,43.05-25.37,5.95,1,12.86,1.5,20.56,1.5,24.91,0,48.33-4.49,69.61-13.35,38.3-16.09,57.72-43.66,57.72-81.94ZM1163.68,151.58c6.58-16.1,15.97-31.22,27.9-44.92,11.45-13.15,25.21-23.58,40.92-31.03,10.48,11.57,18.63,25.59,24.23,41.69,5.64,16.2,8.5,32.99,8.5,49.91,0,18.67-3.82,34.88-11.35,48.19-7.11,12.47-15.93,21.98-26.23,28.28-10.26,6.28-20.81,9.46-31.37,9.46-12.7,0-22.96-4.39-31.37-13.41-8.03-8.63-12.1-22.14-12.1-40.15,0-14.53,3.65-30.68,10.86-48.02ZM1276.04,166.91c0-17.62-2.99-35.37-8.88-52.77-5.47-16.15-13.58-30.55-24.13-42.85,19.53-6.97,39.85-10.5,60.45-10.5,12.98,0,24.87,1.84,35.33,5.46,20.79,7.24,30.89,19.72,30.89,38.17,0,11.87-3.99,21.63-12.19,29.83-8.32,8.31-18.15,14.34-29.22,17.93l-2.29.74,2.07,9.77h9.54c14.25,0,25.59,3.4,33.69,10.11,9.27,7.76,13.78,17.57,13.78,29.99,0,30.6-14.78,53.15-45.17,68.92-18.23,9.37-38.89,14.13-61.43,14.13-5.28,0-10.03-.3-14.17-.9,11.8-20.55,27.67-54.59,47.25-101.3,19.13-45.8,32.78-79.64,40.58-100.56l1.34-3.61h-31.11l-51.03,122.05c3.12-10.51,4.7-22.09,4.7-34.62Z"/>
  <path class="st0" d="M1876.62,143.15c4.48,0,8.67-1.61,12.43-4.77,4.8-3.93,7.23-8.94,7.23-14.89,0-3.38-1.06-6.42-3.2-9.1-2.87-3.39-6.69-5.11-11.34-5.11s-8.66,1.61-12.47,4.8c-4.77,4.04-7.19,9.04-7.19,14.86,0,3.52,1.24,6.77,3.67,9.66,2.55,3.02,6.2,4.56,10.86,4.56Z"/>
  <path class="st0" d="M1889.02,200.64l-3.66,6.27c-15.1,26.19-29.42,46.5-42.57,60.39-5.58,5.93-8.34,7.09-9.4,7.29-.04-.2-.08-.52-.08-.97,0-5.42,2.75-15.45,8.15-29.81,6.89-18.02,16.13-39.19,27.48-62.94,6.08-12.79,9.97-20.9,11.67-24.3l1.94-3.87h-31.29l-.74,1.47c-10.32,20.48-18.67,38.48-25.12,54.15-14.8,25.49-28.83,45.35-41.74,58.98-6,6.38-9.18,7.33-10.92,7.34-.04-.06-.15-.37-.15-1.02,0-11.77,11.09-44.64,32.97-97.68,14.84-35.99,28.25-68.3,40.21-96.92l1.55-3.71h-29.53l-.68,1.66c-12.82,31.4-25.74,62.75-38.77,94.03-5.57,13.34-10.32,25.39-14.33,36.26-6.53,11.13-12.22,20.35-16.81,27.19-14.22,20.67-28.42,32.72-42.52,35.94,7.77-8.07,14.97-18.62,21.49-31.47,8.48-17.06,12.78-33.2,12.78-47.98,0-10.56-2.7-19.73-8.02-27.26-5.53-7.82-13.06-11.79-22.37-11.79-5.88,0-11.73,2.39-17.47,7.13l2.57-6.16h-30.64l-21.19,51.58-1.45,2.48c-9.73,17.02-19.2,31.64-28.15,43.42-13.82,17.71-25.46,26.69-34.58,26.69-11.82,0-18.44-10.93-20.24-33.41-.36-5.09-1.6-8.88-3.81-11.61-1.07-1.29-2.29-2.29-3.66-3,6.52-10.92,11.34-18.56,14.34-22.72,26.88-36.96,40.67-44.72,47.51-44.72,4.14,0,6.82,1.44,8.41,4.62-1.56.47-3.01,1.25-4.34,2.34-2.42,1.99-3.7,4.7-3.7,7.84,0,2.92.8,5.28,2.38,7.01,1.65,1.8,4.12,2.71,7.34,2.71,2.53,0,6.08-.91,8.57-5.27,1.72-3.02,2.6-6.51,2.6-10.38,0-4.94-1.85-9.48-5.5-13.5-3.72-4.09-9.07-6.16-15.92-6.16-14.81,0-33.59,16.7-57.21,50.96l51.75-126.43h-30.94l-53.45,130.86c-2.56,4.39-5.1,8.65-7.6,12.7-9.34,15.32-18.93,25.26-28.57,29.67,7.82-14.19,13.25-29.38,16.17-45.23.99-5.06,1.49-10.89,1.49-17.34,0-28.7-13.83-34.72-25.43-34.72-9.9,0-19.03,2.8-27.15,8.32-9.12,6.26-16.93,14.33-23.24,23.98-6.25,9.57-11.08,19.94-14.34,30.81-3.48,11.42-5.24,22.84-5.24,33.95,0,12.98,3.28,23.47,9.76,31.2,4.46,5.31,10.7,8,18.55,8,14.65,0,28.44-8.7,41-25.87,8.25-.58,15.77-3.55,22.36-8.84,1.67-1.33,3.34-2.83,5-4.44l-16.58,40.59h30.95l.67-1.69c4.15-10.46,10.19-22.85,18-36.93,1.36,8.64,4.08,16.52,8.11,23.49,6.36,11.1,15.77,16.73,27.96,16.73,14.65,0,30.21-11.05,46.24-32.72l-65.46,159.31h30.62l55.39-134.85c5.25,5.49,11.87,8.27,19.73,8.27,10.93,0,21.22-2.98,30.57-8.86,1.95.25,4.01.37,6.12.37,18.8,0,37.16-11.96,54.67-35.53-2.22,9.11-3.35,16.54-3.35,22.28,0,17.97,10.86,21.74,19.98,21.74,10.42,0,24.63-13.07,43.04-39.63-1.51,6.85-2.29,12.83-2.29,17.89,0,17.97,9.99,21.74,18.38,21.74,14.95,0,37.67-26.8,69.46-81.93l1.27-2.21-8.98-5.77ZM1665.36,221.27c9.24-22.78,19.42-40.41,30.29-52.43,3.67-4.14,7.36-6.15,11.3-6.15,1.96,0,4.06,4.18,4.06,15.91,0,21.96-6.14,43.78-18.23,64.84-4.64,8.07-9.53,15.15-14.58,21.08-2.75-3.51-4.14-8.46-4.14-14.78,0-8.47,1.6-15.55,4.76-21.1,3.44,2.79,9.34,2.73,12.84-.91,1.83-1.9,2.75-4.19,2.75-6.82s-.92-4.92-2.76-6.82c-1.86-1.93-4.15-2.9-6.81-2.9-5.97,0-11.42,5.15-16.65,15.74-3.27,6.54-4.93,14.22-4.93,22.83,0,9.22,2.54,16.83,7.56,22.66-10.98,10.07-18.89,9.44-26.06-.85l20.61-50.28ZM1446.89,271.27c-7.32,0-8.86-13.36-8.86-24.56,0-8.72,1.3-17.63,3.87-26.65.41,7.67,2.22,15.37,5.41,22.96,3.35,7.97,9.27,13.63,17.62,16.86-6.59,7.57-12.65,11.4-18.03,11.4ZM1457.2,238.59c-3.04-7-4.59-14.13-4.59-21.21s1.4-14.48,4.18-22.18c1.84-5.2,4.29-10.03,7.28-14.35,2.97-4.29,5.72-7.4,8.21-9.29,4.4-3.54,8.1-5.34,10.94-5.34,2.36.03,9.54.13,9.54,19.76,0,4.41-.53,9.58-1.55,15.36-3.33,17.56-9.88,34.13-19.47,49.27-6.95-1.62-11.72-5.57-14.55-12.02Z"/>
</svg>